<?xml version="1.0" encoding="UTF-8" standalone="no"?>
<svg
   version="1.0"
   width="900.000000pt"
   height="867.000000pt"
   viewBox="0 0 900.000000 867.000000"
   preserveAspectRatio="xMidYMid meet"
   id="svg31"
   sodipodi:docname="logo.svg"
   inkscape:export-filename="logo.png"
   inkscape:export-xdpi="96"
   inkscape:export-ydpi="96"
   inkscape:version="1.2 (dc2aedaf03, 2022-05-15)"
   xmlns:inkscape="http://www.inkscape.org/namespaces/inkscape"
   xmlns:sodipodi="http://sodipodi.sourceforge.net/DTD/sodipodi-0.dtd"
   xmlns="http://www.w3.org/2000/svg"
   xmlns:svg="http://www.w3.org/2000/svg">
  <defs
     id="defs35" />
  <sodipodi:namedview
     id="namedview33"
     pagecolor="#ffffff"
     bordercolor="#000000"
     borderopacity="0.25"
     inkscape:showpageshadow="2"
     inkscape:pageopacity="0.0"
     inkscape:pagecheckerboard="0"
     inkscape:deskcolor="#d1d1d1"
     inkscape:document-units="pt"
     showgrid="false"
     inkscape:zoom="0.67041522"
     inkscape:cx="457.17936"
     inkscape:cy="470.60387"
     inkscape:window-width="1920"
     inkscape:window-height="991"
     inkscape:window-x="-9"
     inkscape:window-y="-9"
     inkscape:window-maximized="1"
     inkscape:current-layer="svg31" />
  <metadata
     id="metadata23">
Created by potrace 1.10, written by Peter Selinger 2001-2011
</metadata>
  <g
     transform="matrix(0.09476888,0,0,-0.09451909,33.004909,843.21149)"
     fill="#000000"
     stroke="none"
     id="g29">
    <path
       d="m 3850,8609 c -85,-5 -265,-13 -400,-19 -409,-19 -526,-27 -870,-61 -147,-15 -324,-35 -465,-54 -66,-9 -151,-20 -190,-25 -38,-5 -81,-12 -95,-15 -14,-4 -63,-13 -110,-21 -125,-21 -293,-53 -375,-73 -22,-5 -80,-19 -130,-31 -49,-12 -101,-25 -115,-30 -14,-4 -79,-25 -145,-45 -66,-21 -124,-42 -129,-46 -6,-5 -16,-9 -23,-9 -36,0 -253,-109 -365,-183 C 222,7853 110,7690 68,7460 50,7358 50,6759 68,6600 c 33,-289 56,-443 107,-700 33,-167 103,-455 149,-610 9,-30 21,-73 27,-95 5,-22 13,-49 18,-60 5,-11 30,-87 57,-170 56,-178 151,-439 213,-590 5,-11 17,-40 27,-65 36,-90 54,-132 103,-243 17,-38 31,-71 31,-74 0,-16 298,-621 373,-758 18,-33 50,-91 72,-130 21,-38 59,-106 86,-150 26,-44 55,-94 65,-112 63,-108 211,-345 264,-423 6,-8 47,-69 91,-135 45,-66 110,-158 144,-205 35,-47 78,-106 97,-132 37,-52 229,-300 238,-308 3,-3 30,-34 60,-70 432,-512 872,-914 1326,-1213 72,-47 158,-100 190,-118 32,-17 88,-48 124,-67 36,-19 72,-39 80,-43 8,-5 44,-21 80,-37 36,-17 86,-39 112,-51 26,-11 54,-21 62,-21 9,0 16,-4 16,-10 0,-13 277,-13 285,0 3,6 13,10 21,10 38,0 326,144 515,257 137,82 174,119 203,204 30,86 13,182 -45,252 -17,21 -95,86 -173,144 -229,173 -332,260 -489,413 -270,263 -438,520 -533,820 -72,224 -103,448 -111,793 l -5,229 -41,-6 c -184,-24 -293,-29 -404,-18 -271,25 -446,85 -649,218 -98,64 -230,186 -287,264 -22,30 -43,57 -47,60 -10,8 -46,71 -89,155 -70,136 -111,268 -136,440 -7,50 -16,109 -20,132 -7,40 -6,43 21,53 56,22 165,103 217,163 76,87 181,242 257,382 162,295 310,550 389,665 233,342 462,553 721,663 19,9 46,18 60,22 14,3 34,10 45,15 32,13 157,40 188,40 64,0 67,7 67,158 0,129 -7,220 -31,422 -6,47 -15,128 -20,180 -5,52 -14,108 -19,123 -13,38 -3,59 24,51 21,-7 410,-294 491,-363 23,-20 72,-61 110,-91 37,-30 73,-60 79,-65 6,-6 63,-55 126,-110 318,-275 628,-588 835,-840 22,-27 45,-53 50,-59 22,-22 162,-213 206,-281 138,-211 241,-408 289,-556 11,-37 26,-73 33,-82 7,-8 59,-31 117,-51 173,-59 253,-89 345,-131 64,-29 365,-178 450,-224 138,-73 180,-84 338,-89 157,-5 236,9 346,60 71,34 182,115 223,162 14,17 36,42 48,56 28,32 110,197 110,220 0,11 4,21 9,24 5,3 12,18 15,33 9,40 66,224 77,248 5,11 13,38 18,60 6,22 17,65 25,95 8,30 22,80 30,110 8,30 24,91 36,135 21,80 24,92 55,240 48,227 65,326 106,615 35,256 47,681 25,920 -16,178 -32,247 -78,331 -44,81 -61,104 -147,189 -119,119 -234,193 -426,274 -49,21 -99,42 -110,47 -41,18 -237,79 -254,79 -9,0 -21,4 -26,9 -6,5 -32,14 -60,20 -27,6 -79,17 -115,26 -309,74 -675,135 -1083,180 -76,8 -148,17 -160,20 -12,3 -80,10 -152,15 -71,4 -193,13 -270,19 -356,28 -428,32 -700,43 -349,13 -1139,17 -1355,7 z"
       id="path25" />
    <path
       d="m 3350,5210 c -84,-44 -124,-131 -99,-215 49,-165 273,-181 347,-26 71,150 -103,319 -248,241 z"
       id="path27" />
  </g>
</svg>
